<svg width="34" height="34" viewBox="0 0 34 34" fill="none" xmlns="http://www.w3.org/2000/svg">
<path fill-rule="evenodd" clip-rule="evenodd" d="M0.333344 30.3333C0.333344 32.1743 1.82573 33.6666 3.66668 33.6666H26.0237L33.6667 26.0237V3.66665C33.6667 1.8257 32.1743 0.333313 30.3333 0.333313H3.66668C1.82573 0.333313 0.333344 1.8257 0.333344 3.66665V30.3333ZM3.66668 3.66665H30.3333V22H25.3333C23.4924 22 22 23.4924 22 25.3333V30.3333H3.66668V3.66665ZM25.3333 25.3333H29.643L25.3333 29.643V25.3333ZM8.66668 22V25.3333H18.6667V22H8.66668ZM8.66668 18.6666V15.3333H25.3333V18.6666H8.66668ZM8.66668 8.66665V12H25.3333V8.66665H8.66668Z" fill="#727272" fill-opacity="0.65"/>
</svg>
