<svg width="35" height="35" viewBox="0 0 35 35" fill="none" xmlns="http://www.w3.org/2000/svg">
<path fill-rule="evenodd" clip-rule="evenodd" d="M14.7817 8.81204C15.5144 4.01118 19.661 0.333313 24.6667 0.333313C30.1895 0.333313 34.6667 4.81046 34.6667 10.3333C34.6667 15.3389 30.9888 19.4855 26.188 20.2183L6.14066 34.1643L0.835693 28.8594L14.7817 8.81204ZM21.1174 19.6851C18.4497 18.6721 16.3279 16.5504 15.3149 13.8826L5.16435 28.474L6.52605 29.8357L21.1174 19.6851ZM30.5362 13.4972C31.0447 12.5558 31.3333 11.4783 31.3333 10.3333C31.3333 6.65141 28.3486 3.66665 24.6667 3.66665C23.5106 3.66665 22.4232 3.96092 21.4754 4.47864C21.9796 6.05185 23.7137 8.68994 25.0119 9.98814C26.2889 11.2651 28.8813 12.9605 30.5362 13.4972ZM28.0551 16.0759C27.0622 16.663 25.9038 17 24.6667 17C20.9848 17 18 14.0152 18 10.3333C18 9.10738 18.3309 7.95873 18.9083 6.97182C19.8361 8.94511 21.3248 11.0151 22.6548 12.3452C23.9678 13.6581 26.0565 15.1434 28.0551 16.0759Z" fill="#727272" fill-opacity="0.65"/>
</svg>
